<svg id="page100" xmlns:ed="http://www.edrawsoft.cn/xml/2017/SVGExtensions/" ed:hSpacing="30" width="2409" viewBox="0 0 2409 1900" xmlns:xlink="http://www.w3.org/1999/xlink" ed:name="Page-1" height="1900" xmlns:ev="http://www.w3.org/2001/xml-events" ed:vSpacing="30" xmlns="http://www.w3.org/2000/svg"><style type="text/css"><![CDATA[
g[ed\:togtopicid],g[ed\:hyperlink],g[ed\:comment],g[ed\:note] {cursor:pointer;}
g[id] {-moz-user-select: none;-ms-user-select: none;user-select: none;}
svg text::selection,svg tspan::selection{background-color: #4285f4;color: #ffffff;fill: #ffffff;}
.st2 {fill:#303030;font-family:宋体;font-size:10pt}
.st1 {fill:#ffffff;font-family:宋体;font-size:12pt}
.st3 {fill:#ffffff;font-family:宋体;font-size:14pt}
]]></style><defs><linearGradient x1="0%" y1="0%" id="lg1" x2="0%" y2="100%"><stop offset="0" stop-color="#ffffff"/><stop offset="0.25" stop-color="#f0f5f0"/><stop offset="0.75" stop-color="#e1ebe1"/><stop offset="1" stop-color="#c8d7c8"/></linearGradient></defs><rect fill="#ffffff" width="2409" x="0" height="1900" y="0"/><g ed:height="42" id="102" transform="translate(337.15,259.3)" ed:width="84.84999999999999" ed:parentid="101"><path fill="#eacd98" stroke-linejoin="round" d="M21,0L63.9,0C75.4,0,84.8,9.4,84.8,21C84.8,32.6,75.4,42,63.9,42L21,42C9.4,42,0,32.6,0,21C0,9.4,9.4,0,21,0z" stroke="#eacd98" stroke-width="3"/><path id="103" fill="none" transform="translate(-61.79,355.95)" stroke-linejoin="round" d="M-27.8,304.3C-26,-80.6,9.4,-334.9,61.8,-334.9" stroke="#eacd98" stroke-width="3" stroke-linecap="round"/><text class="st1"><tspan lengthAdjust="spacing" textLength="32" style="white-space:pre" x="27" y="27.5">互惠</tspan></text></g><g ed:height="42" id="104" transform="translate(337.15,607.45)" ed:width="116.85" ed:parentid="101"><path fill="#a3cf62" stroke-linejoin="round" d="M21,0L95.8,0C107.4,0,116.8,9.4,116.8,21C116.8,32.6,107.4,42,95.8,42L21,42C9.4,42,0,32.6,0,21C0,9.4,9.4,0,21,0z" stroke="#a3cf62" stroke-width="3"/><path id="105" fill="none" transform="translate(-61.79,181.88)" stroke-linejoin="round" d="M-27.6,130.2C-23.9,-45.7,10.9,-160.9,61.8,-160.9" stroke="#a3cf62" stroke-width="3" stroke-linecap="round"/><text class="st1"><tspan lengthAdjust="spacing" textLength="64" style="white-space:pre" x="27" y="27.5">承诺一致</tspan></text></g><g ed:height="42" id="106" transform="translate(337.15,896.2)" ed:width="116.85" ed:parentid="101"><path fill="#ed8934" stroke-linejoin="round" d="M21,0L95.8,0C107.4,0,116.8,9.4,116.8,21C116.8,32.6,107.4,42,95.8,42L21,42C9.4,42,0,32.6,0,21C0,9.4,9.4,0,21,0z" stroke="#ed8934" stroke-width="3"/><path id="107" fill="none" transform="translate(-61.79,37.5)" stroke-linejoin="round" d="M-9.6,-4.7C6,-12.2,31,-16.5,61.8,-16.5" stroke="#ed8934" stroke-width="3" stroke-linecap="round"/><text class="st1"><tspan lengthAdjust="spacing" textLength="64" style="white-space:pre" x="27" y="27.5">社会认同</tspan></text></g><g ed:height="42" id="108" transform="translate(337.15,1125.55)" ed:width="84.84999999999999" ed:parentid="101"><path fill="#58a8d0" stroke-linejoin="round" d="M21,0L63.9,0C75.4,0,84.8,9.4,84.8,21C84.8,32.6,75.4,42,63.9,42L21,42C9.4,42,0,32.6,0,21C0,9.4,9.4,0,21,0z" stroke="#58a8d0" stroke-width="3"/><path id="109" fill="none" transform="translate(-61.79,-77.17)" stroke-linejoin="round" d="M-27,-67.6C-21.3,33,12.8,98.2,61.8,98.2" stroke="#58a8d0" stroke-width="3" stroke-linecap="round"/><text class="st1"><tspan lengthAdjust="spacing" textLength="32" style="white-space:pre" x="27" y="27.5">喜好</tspan></text></g><g ed:height="42" id="110" transform="translate(337.15,1354.9)" ed:width="84.84999999999999" ed:parentid="101"><path fill="#57c1f4" stroke-linejoin="round" d="M21,0L63.9,0C75.4,0,84.8,9.4,84.8,21C84.8,32.6,75.4,42,63.9,42L21,42C9.4,42,0,32.6,0,21C0,9.4,9.4,0,21,0z" stroke="#57c1f4" stroke-width="3"/><path id="111" fill="none" transform="translate(-61.79,-191.85)" stroke-linejoin="round" d="M-27.7,-182.2C-24.9,56.1,10.2,212.8,61.8,212.8" stroke="#57c1f4" stroke-width="3" stroke-linecap="round"/><text class="st1"><tspan lengthAdjust="spacing" textLength="32" style="white-space:pre" x="27" y="27.5">权威</tspan></text></g><g ed:height="42" id="112" transform="translate(337.15,1599.1)" ed:width="84.84999999999999" ed:parentid="101"><path fill="#32c5c4" stroke-linejoin="round" d="M21,0L63.9,0C75.4,0,84.8,9.4,84.8,21C84.8,32.6,75.4,42,63.9,42L21,42C9.4,42,0,32.6,0,21C0,9.4,9.4,0,21,0z" stroke="#32c5c4" stroke-width="3"/><path id="113" fill="none" transform="translate(-61.79,-313.95)" stroke-linejoin="round" d="M-27.8,-304.3C-26,80.6,9.4,334.9,61.8,334.9" stroke="#32c5c4" stroke-width="3" stroke-linecap="round"/><text class="st1"><tspan lengthAdjust="spacing" textLength="32" style="white-space:pre" x="27" y="27.5">稀缺</tspan></text></g><g ed:height="21" id="114" transform="translate(451,195.55)" ed:width="466" ed:parentid="102"><path id="115" fill="none" transform="translate(-14.5,47.63)" stroke-linejoin="round" d="M-14.5,37.1L2.6,37.1L2.6,-31.1C2.6,-34.4,5.3,-37.1,8.6,-37.1L14.5,-37.1" stroke="#eacd98" stroke-linecap="round"/><text class="st2"><tspan lengthAdjust="spacing" textLength="455" style="white-space:pre" x="6" y="15.5">原理：利用人的亏欠感，我们应该尽量以相同的方式报答他人为我们所做的一切</tspan></text></g><g ed:height="21" id="116" transform="translate(946,151)" ed:width="245" ed:parentid="114"><path id="117" fill="none" transform="translate(-14.5,32.77)" stroke-linejoin="round" d="M-14.5,22.3L2.6,22.3L2.6,-16.3C2.6,-19.6,5.3,-22.3,8.6,-22.3L14.5,-22.3" stroke="#eacd98" stroke-linecap="round"/><text class="st2"><tspan lengthAdjust="spacing" textLength="234" style="white-space:pre" x="6" y="15.5">互惠的影响力可以凌驾于喜好的力量之上</tspan></text></g><g ed:height="21" id="118" transform="translate(946,180.7)" ed:width="323" ed:parentid="114"><path id="119" fill="none" transform="translate(-14.5,17.92)" stroke-linejoin="round" d="M-14.5,7.4L2.6,7.4L2.6,-1.4C2.6,-4.7,5.3,-7.4,8.6,-7.4L14.5,-7.4" stroke="#eacd98" stroke-linecap="round"/><text class="st2"><tspan lengthAdjust="spacing" textLength="312" style="white-space:pre" x="6" y="15.5">给予是一种责任，接受是一种责任，偿还也是一种责任</tspan></text></g><g ed:height="21" id="120" transform="translate(946,210.4)" ed:width="1116" ed:parentid="114"><path id="121" fill="none" transform="translate(-14.51,3.07)" stroke-linejoin="round" d="M-14.5,-7.4L2.6,-7.4L2.6,1.4C2.6,4.7,5.3,7.4,8.6,7.4L14.5,7.4" stroke="#eacd98" stroke-linecap="round"/><text class="st2"><tspan lengthAdjust="spacing" textLength="1105" style="white-space:pre" x="6" y="15.5">互惠原理会引起不公平交换，即给小换大，人们获得的回报往往大于最初的给予。给予可以是物质利益，也可以是精神支持，各种形式的帮助或帮忙，甚至是“拒绝——退让”策略中的主动让步</tspan></text></g><g ed:height="21" id="122" transform="translate(946,240.1)" ed:width="934" ed:parentid="114"><path id="123" fill="none" transform="translate(-14.51,-11.77)" stroke-linejoin="round" d="M-14.5,-22.3L2.6,-22.3L2.6,16.3C2.6,19.6,5.3,22.3,8.6,22.3L14.5,22.3" stroke="#eacd98" stroke-linecap="round"/><text class="st2"><tspan lengthAdjust="spacing" textLength="923" style="white-space:pre" x="6" y="15.5">拒绝——退让策略，给予对方的仅仅一个让步，同样会获得回报，同时使对方产生更多的责任感和满足感，从而更愿意履行他的承诺，这是互惠原理最奇妙的地方</tspan></text></g><g ed:height="21" id="124" transform="translate(451,269.8)" ed:width="271" ed:parentid="102"><path id="125" fill="none" transform="translate(-14.5,10.5)" stroke-linejoin="round" d="M-14.5,0L2.6,0C2.6,0,5.3,0,8.6,0L14.5,0" stroke="#eacd98" stroke-linecap="round"/><text class="st2"><tspan lengthAdjust="spacing" textLength="260" style="white-space:pre" x="6" y="15.5">心理基础：负债感，感恩图报、社会伦理道德</tspan></text></g><g ed:height="21" id="126" transform="translate(451,344.05)" ed:width="37" ed:parentid="102"><path id="127" fill="none" transform="translate(-14.5,-26.63)" stroke-linejoin="round" d="M-14.5,-37.1L2.6,-37.1L2.6,31.1C2.6,34.4,5.3,37.1,8.6,37.1L14.5,37.1" stroke="#eacd98" stroke-linecap="round"/><text class="st2"><tspan lengthAdjust="spacing" textLength="26" style="white-space:pre" x="6" y="15.5">应用</tspan></text></g><g ed:height="21" id="128" transform="translate(517,299.5)" ed:width="245" ed:parentid="126"><path id="129" fill="none" transform="translate(-14.5,32.78)" stroke-linejoin="round" d="M-14.5,22.3L2.6,22.3L2.6,-16.3C2.6,-19.6,5.3,-22.3,8.6,-22.3L14.5,-22.3" stroke="#eacd98" stroke-linecap="round"/><text class="st2"><tspan lengthAdjust="spacing" textLength="234" style="white-space:pre" x="6" y="15.5">先大后小的请求顺序，或其他形式的让步</tspan></text></g><g ed:height="21" id="130" transform="translate(517,329.2)" ed:width="375" ed:parentid="126"><path id="131" fill="none" transform="translate(-14.5,17.92)" stroke-linejoin="round" d="M-14.5,7.4L2.6,7.4L2.6,-1.4C2.6,-4.7,5.3,-7.4,8.6,-7.4L14.5,-7.4" stroke="#eacd98" stroke-linecap="round"/><text class="st2"><tspan lengthAdjust="spacing" textLength="364" style="white-space:pre" x="6" y="15.5">给小换大：适时送对方礼物，或帮助，或帮忙，或请客吃饭等等</tspan></text></g><g ed:height="21" id="132" transform="translate(517,358.9)" ed:width="245" ed:parentid="126"><path id="133" fill="none" transform="translate(-14.5,3.07)" stroke-linejoin="round" d="M-14.5,-7.4L2.6,-7.4L2.6,1.4C2.6,4.7,5.3,7.4,8.6,7.4L14.5,7.4" stroke="#eacd98" stroke-linecap="round"/><text class="st2"><tspan lengthAdjust="spacing" textLength="234" style="white-space:pre" x="6" y="15.5">欲取先给：策略，先施舍（给予）后索取</tspan></text></g><g ed:height="21" id="134" transform="translate(517,388.6)" ed:width="128" ed:parentid="126"><path id="135" fill="none" transform="translate(-14.5,-11.77)" stroke-linejoin="round" d="M-14.5,-22.3L2.6,-22.3L2.6,16.3C2.6,19.6,5.3,22.3,8.6,22.3L14.5,22.3" stroke="#eacd98" stroke-linecap="round"/><text class="st2"><tspan lengthAdjust="spacing" textLength="117" style="white-space:pre" x="6" y="15.5">拒绝——退让：策略</tspan></text></g><g ed:height="21" id="136" transform="translate(483,454.6)" ed:width="674" ed:parentid="104"><path id="137" fill="none" transform="translate(-14.5,92.18)" stroke-linejoin="round" d="M-14.5,81.7L2.6,81.7L2.6,-75.7C2.6,-79,5.3,-81.7,8.6,-81.7L14.5,-81.7" stroke="#a3cf62" stroke-linecap="round"/><text class="st2"><tspan lengthAdjust="spacing" textLength="663" style="white-space:pre" x="6" y="15.5">原理：一旦我们做出了某个决定，或选择了某种立场，就会面对来自个人和外部的压力迫使我们的言行与它保持一致</tspan></text></g><g ed:height="21" id="138" transform="translate(483,847.3)" ed:width="609" ed:parentid="106"><path id="139" fill="none" transform="translate(-14.5,40.2)" stroke-linejoin="round" d="M-14.5,29.7L2.6,29.7L2.6,-23.7C2.6,-27,5.3,-29.7,8.6,-29.7L14.5,-29.7" stroke="#ed8934" stroke-linecap="round"/><text class="st2"><tspan lengthAdjust="spacing" textLength="598" style="white-space:pre" x="6" y="15.5">原理：我们进行是非判断的标准之一就是看别人是怎么想的，尤其是我们要决定什么是正确的行为的时候</tspan></text></g><g ed:height="21" id="140" transform="translate(451,1032.1)" ed:width="336" ed:parentid="108"><path id="141" fill="none" transform="translate(-14.5,62.48)" stroke-linejoin="round" d="M-14.5,52L2.6,52L2.6,-46C2.6,-49.3,5.3,-52,8.6,-52L14.5,-52" stroke="#58a8d0" stroke-linecap="round"/><text class="st2"><tspan lengthAdjust="spacing" textLength="325" style="white-space:pre" x="6" y="15.5">原理：人们总是愿意答应自己认识和喜爱的人提出的要求</tspan></text></g><g ed:height="21" id="142" transform="translate(451,1306)" ed:width="583" ed:parentid="110"><path id="143" fill="none" transform="translate(-14.5,40.2)" stroke-linejoin="round" d="M-14.5,29.7L2.6,29.7L2.6,-23.7C2.6,-27,5.3,-29.7,8.6,-29.7L14.5,-29.7" stroke="#57c1f4" stroke-linecap="round"/><text class="st2"><tspan lengthAdjust="spacing" textLength="572" style="white-space:pre" x="6" y="15.5">原理：即使是具有独立思考能力的成年人也会为了服从权威的命令而做出一些完全丧失理智的事情来</tspan></text></g><g ed:height="21" id="144" transform="translate(451,1490.8)" ed:width="648" ed:parentid="112"><path id="145" fill="none" transform="translate(-14.5,69.9)" stroke-linejoin="round" d="M-14.5,59.4L2.6,59.4L2.6,-53.4C2.6,-56.7,5.3,-59.4,8.6,-59.4L14.5,-59.4" stroke="#32c5c4" stroke-linecap="round"/><text class="st2"><tspan lengthAdjust="spacing" textLength="637" style="white-space:pre" x="6" y="15.5">原理：机会越少，价值就越高。害怕失去某种东西的想法比希望得到同等价值东西的想法对人们的激励作用更大</tspan></text></g><g ed:height="21" id="168" transform="translate(483,484.3)" ed:width="895" ed:parentid="104"><path id="169" fill="none" transform="translate(-14.5,77.32)" stroke-linejoin="round" d="M-14.5,66.8L2.6,66.8L2.6,-60.8C2.6,-64.1,5.3,-66.8,8.6,-66.8L14.5,-66.8" stroke="#a3cf62" stroke-linecap="round"/><text class="st2"><tspan lengthAdjust="spacing" textLength="884" style="white-space:pre" x="6" y="15.5">当我们做出一个选择，之后我们会想方设法的证明这个选择是正确的。这种想法往往在现实中演变成为一种自我欺骗的行为。恋爱中的选择更体现的明显。</tspan></text></g><g ed:height="21" id="170" transform="translate(483,528.85)" ed:width="76" ed:parentid="104"><path id="171" fill="none" transform="translate(-14.5,55.05)" stroke-linejoin="round" d="M-14.5,44.5L2.6,44.5L2.6,-38.5C2.6,-41.9,5.3,-44.5,8.6,-44.5L14.5,-44.5" stroke="#a3cf62" stroke-linecap="round"/><text class="st2"><tspan lengthAdjust="spacing" textLength="65" style="white-space:pre" x="6" y="15.5">吸引力在于</tspan></text></g><g ed:height="21" id="172" transform="translate(588,514)" ed:width="479" ed:parentid="170"><path id="173" fill="none" transform="translate(-14.5,17.93)" stroke-linejoin="round" d="M-14.5,7.4L2.6,7.4L2.6,-1.4C2.6,-4.7,5.3,-7.4,8.6,-7.4L14.5,-7.4" stroke="#a3cf62" stroke-linecap="round"/><text class="st2"><tspan lengthAdjust="spacing" textLength="468" style="white-space:pre" x="6" y="15.5">机械性的行为或者说是惯性思维能够让我们免于思考。人的本质是不愿意动脑子的</tspan></text></g><g ed:height="21" id="174" transform="translate(588,543.7)" ed:width="456" ed:parentid="170"><path id="175" fill="none" transform="translate(-14.5,3.08)" stroke-linejoin="round" d="M-14.5,-7.4L2.6,-7.4L2.6,1.4C2.6,4.7,5.3,7.4,8.6,7.4L14.5,7.4" stroke="#a3cf62" stroke-linecap="round"/><text class="st2"><tspan lengthAdjust="spacing" textLength="445" style="white-space:pre" x="6" y="15.5">思考后再做出选择可能会违背人们原始的意愿，让人陷入失望的境地。so sad</tspan></text></g><g ed:height="21" id="176" transform="translate(575,573.4)" ed:width="486" ed:parentid="178"><path id="177" fill="none" transform="translate(-14.5,62.47)" stroke-linejoin="round" d="M-14.5,52L2.6,52L2.6,-46C2.6,-49.3,5.3,-52,8.6,-52L14.5,-52" stroke="#a3cf62" stroke-linecap="round"/><text class="st2"><tspan lengthAdjust="spacing" textLength="475" style="white-space:pre" x="6" y="15.5">承诺是关键，当人们选择立场，公开表示观点，此后的行为会不假思索按承诺去做 </tspan></text></g><g ed:height="21" id="178" transform="translate(483,677.35)" ed:width="63" ed:parentid="104"><path id="179" fill="none" transform="translate(-14.5,-19.2)" stroke-linejoin="round" d="M-14.5,-29.7L2.6,-29.7L2.6,23.7C2.6,27,5.3,29.7,8.6,29.7L14.5,29.7" stroke="#a3cf62" stroke-linecap="round"/><text class="st2"><tspan lengthAdjust="spacing" textLength="52" style="white-space:pre" x="6" y="15.5">注意事项</tspan></text></g><g ed:height="21" id="180" transform="translate(575,603.1)" ed:width="1402" ed:parentid="178"><path id="181" fill="none" transform="translate(-14.5,47.63)" stroke-linejoin="round" d="M-14.5,37.1L2.6,37.1L2.6,-31.1C2.6,-34.4,5.3,-37.1,8.6,-37.1L14.5,-37.1" stroke="#a3cf62" stroke-linecap="round"/><text class="st2"><tspan lengthAdjust="spacing" textLength="1391" style="white-space:pre" x="6" y="15.5">登门槛：当我们接受琐碎请求时务必小心谨慎，一旦同意了，可影响我们的自我认知。它不光能够提高我们对分量更大的类似请求的顺从度，还能使我们更为乐意去做一些跟先前答应的小要求毫不相关的事情。（被用来操纵一个人的自我形象）</tspan></text></g><g ed:height="21" id="182" transform="translate(575,632.8)" ed:width="414" ed:parentid="178"><path id="183" fill="none" transform="translate(-14.5,32.77)" stroke-linejoin="round" d="M-14.5,22.3L2.6,22.3L2.6,-16.3C2.6,-19.6,5.3,-22.3,8.6,-22.3L14.5,-22.3" stroke="#a3cf62" stroke-linecap="round"/><text class="st2"><tspan lengthAdjust="spacing" textLength="403" style="white-space:pre" x="6" y="15.5">当事人积极地、公开的、经过一番努力后自由选择的才有强大的效果。</tspan></text></g><g ed:height="21" id="184" transform="translate(575,662.5)" ed:width="578" ed:parentid="178"><path id="185" fill="none" transform="translate(-14.5,17.93)" stroke-linejoin="round" d="M-14.5,7.4L2.6,7.4L2.6,-1.4C2.6,-4.7,5.3,-7.4,8.6,-7.4L14.5,-7.4" stroke="#a3cf62" stroke-linecap="round"/><text class="st2"><tspan lengthAdjust="spacing" textLength="567" style="white-space:pre" x="6" y="15.5">书面承诺、公开承诺的效果会更好（ps:想要减肥的话，可以公开承诺出来，成功可能性更大一些）</tspan></text></g><g ed:height="21" id="186" transform="translate(575,692.2)" ed:width="583" ed:parentid="178"><path id="187" fill="none" transform="translate(-14.5,3.08)" stroke-linejoin="round" d="M-14.5,-7.4L2.6,-7.4L2.6,1.4C2.6,4.7,5.3,7.4,8.6,7.4L14.5,7.4" stroke="#a3cf62" stroke-linecap="round"/><text class="st2"><tspan lengthAdjust="spacing" textLength="572" style="white-space:pre" x="6" y="15.5">为了一个承诺付出的努力越多，它对承诺的影响力越大。费尽周折得到的东西，我们往往更加珍惜。</tspan></text></g><g ed:height="21" id="188" transform="translate(575,721.9)" ed:width="791" ed:parentid="178"><path id="189" fill="none" transform="translate(-14.5,-11.77)" stroke-linejoin="round" d="M-14.5,-22.3L2.6,-22.3L2.6,16.3C2.6,19.6,5.3,22.3,8.6,22.3L14.5,22.3" stroke="#a3cf62" stroke-linecap="round"/><text class="st2"><tspan lengthAdjust="spacing" textLength="780" style="white-space:pre" x="6" y="15.5">只有当我们认为外界不存在强大的压力时，我们才会为自己的行为发自内心的负起责任。所以在教育小孩子的时候威逼利诱是行不通的。</tspan></text></g><g ed:height="21" id="190" transform="translate(575,751.6)" ed:width="843" ed:parentid="178"><path id="191" fill="none" transform="translate(-14.5,-26.62)" stroke-linejoin="round" d="M-14.5,-37.1L2.6,-37.1L2.6,31.1C2.6,34.4,5.3,37.1,8.6,37.1L14.5,37.1" stroke="#a3cf62" stroke-linecap="round"/><text class="st2"><tspan lengthAdjust="spacing" textLength="832" style="white-space:pre" x="6" y="15.5">抛低球：运用于销售，先给人一个甜头，诱使人作出购买的决定。而后，等决定做好了，交易却还没有最终拍板，卖方巧妙地取消了最初的甜头。</tspan></text></g><g ed:height="21" id="192" transform="translate(575,781.3)" ed:width="544" ed:parentid="178"><path id="193" fill="none" transform="translate(-14.5,-41.47)" stroke-linejoin="round" d="M-14.5,-52L2.6,-52L2.6,46C2.6,49.3,5.3,52,8.6,52L14.5,52" stroke="#a3cf62" stroke-linecap="round"/><text class="st2"><tspan lengthAdjust="spacing" textLength="533" style="white-space:pre" x="6" y="15.5">当他人多我们运用的时候如何处理？内心假设回到初始位置，那时候自己的选择才是理性的。</tspan></text></g><g ed:height="21" id="194" transform="translate(483,877)" ed:width="596" ed:parentid="106"><path id="195" fill="none" transform="translate(-14.5,25.35)" stroke-linejoin="round" d="M-14.5,14.8L2.6,14.8L2.6,-8.8C2.6,-12.2,5.3,-14.8,8.6,-14.8L14.5,-14.8" stroke="#ed8934" stroke-linecap="round"/><text class="st2"><tspan lengthAdjust="spacing" textLength="585" style="white-space:pre" x="6" y="15.5">我们对社会认同的反应方式完全是无意识的、条件反射式的，这样一来，伪造的证据也能够愚弄我们。</tspan></text></g><g ed:height="21" id="196" transform="translate(483,921.55)" ed:width="63" ed:parentid="106"><path id="197" fill="none" transform="translate(-14.5,3.08)" stroke-linejoin="round" d="M-14.5,-7.4L2.6,-7.4L2.6,1.4C2.6,4.7,5.3,7.4,8.6,7.4L14.5,7.4" stroke="#ed8934" stroke-linecap="round"/><text class="st2"><tspan lengthAdjust="spacing" textLength="52" style="white-space:pre" x="6" y="15.5">适用条件</tspan></text></g><g ed:height="21" id="198" transform="translate(575,906.7)" ed:width="609" ed:parentid="196"><path id="199" fill="none" transform="translate(-14.5,17.93)" stroke-linejoin="round" d="M-14.5,7.4L2.6,7.4L2.6,-1.4C2.6,-4.7,5.3,-7.4,8.6,-7.4L14.5,-7.4" stroke="#ed8934" stroke-linecap="round"/><text class="st2"><tspan lengthAdjust="spacing" textLength="598" style="white-space:pre" x="6" y="15.5">当我们自己不确定、情况不明或含糊不清、意外性太大的时候，我们最有可能觉得别人的行为是正确的。</tspan></text></g><g ed:height="21" id="200" transform="translate(575,936.4)" ed:width="609" ed:parentid="196"><path id="201" fill="none" transform="translate(-14.5,3.08)" stroke-linejoin="round" d="M-14.5,-7.4L2.6,-7.4L2.6,1.4C2.6,4.7,5.3,7.4,8.6,7.4L14.5,7.4" stroke="#ed8934" stroke-linecap="round"/><text class="st2"><tspan lengthAdjust="spacing" textLength="598" style="white-space:pre" x="6" y="15.5">相似性，我们会根据他人的行为来判断自己怎样做才合适，尤其是在我们觉得这些人跟自己相似的时候。</tspan></text></g><g ed:height="21" id="202" transform="translate(483,966.1)" ed:width="674" ed:parentid="106"><path id="203" fill="none" transform="translate(-14.5,-19.2)" stroke-linejoin="round" d="M-14.5,-29.7L2.6,-29.7L2.6,23.7C2.6,27,5.3,29.7,8.6,29.7L14.5,29.7" stroke="#ed8934" stroke-linecap="round"/><text class="st2"><tspan lengthAdjust="spacing" textLength="663" style="white-space:pre" x="6" y="15.5">维特效应：自杀新闻大肆报道，会增加自杀率。原因：这些人根据其他陷入困境的人如何行动，决定自己该怎么做。</tspan></text></g><g ed:height="21" id="204" transform="translate(451,1150.9)" ed:width="102" ed:parentid="108"><path id="205" fill="none" transform="translate(-14.5,3.08)" stroke-linejoin="round" d="M-14.5,-7.4L2.6,-7.4L2.6,1.4C2.6,4.7,5.3,7.4,8.6,7.4L14.5,7.4" stroke="#58a8d0" stroke-linecap="round"/><text class="st2"><tspan lengthAdjust="spacing" textLength="91" style="white-space:pre" x="6" y="15.5">我喜欢你的理由</tspan></text></g><g ed:height="21" id="206" transform="translate(582,1061.8)" ed:width="466" ed:parentid="204"><path id="207" fill="none" transform="translate(-14.5,55.05)" stroke-linejoin="round" d="M-14.5,44.5L2.6,44.5L2.6,-38.5C2.6,-41.9,5.3,-44.5,8.6,-44.5L14.5,-44.5" stroke="#58a8d0" stroke-linecap="round"/><text class="st2"><tspan lengthAdjust="spacing" textLength="455" style="white-space:pre" x="6" y="15.5">外表魅力（光环效应：一个人的一个正面特征就能主导其他人看待此人的眼光）</tspan></text></g><g ed:height="21" id="208" transform="translate(582,1091.5)" ed:width="440" ed:parentid="204"><path id="209" fill="none" transform="translate(-14.5,40.2)" stroke-linejoin="round" d="M-14.5,29.7L2.6,29.7L2.6,-23.7C2.6,-27,5.3,-29.7,8.6,-29.7L14.5,-29.7" stroke="#58a8d0" stroke-linecap="round"/><text class="st2"><tspan lengthAdjust="spacing" textLength="429" style="white-space:pre" x="6" y="15.5">相似性：我们喜欢与自己相似的人（观念、背景、兴趣爱好以及生活方式）</tspan></text></g><g ed:height="21" id="210" transform="translate(582,1121.2)" ed:width="193" ed:parentid="204"><path id="211" fill="none" transform="translate(-14.5,25.35)" stroke-linejoin="round" d="M-14.5,14.8L2.6,14.8L2.6,-8.8C2.6,-12.2,5.3,-14.8,8.6,-14.8L14.5,-14.8" stroke="#58a8d0" stroke-linecap="round"/><text class="st2"><tspan lengthAdjust="spacing" textLength="182" style="white-space:pre" x="6" y="15.5">恭维，因为人特别喜欢听人恭维</tspan></text></g><g ed:height="21" id="212" transform="translate(582,1150.9)" ed:width="1045" ed:parentid="204"><path id="213" fill="none" transform="translate(-14.5,10.5)" stroke-linejoin="round" d="M-14.5,-0L2.6,-0C2.6,0,5.3,0,8.6,0L14.5,0" stroke="#58a8d0" stroke-linecap="round"/><text class="st2"><tspan lengthAdjust="spacing" textLength="1034" style="white-space:pre" x="6" y="15.5">接触与合作：人常常会喜欢自己熟悉的事物。日久生情的原因。（a此种情况，要是在两者不存在竞争关系的时候才能得以实现以团队为为导向的学习能够缓解有竞争带来的不适感）</tspan></text></g><g ed:height="21" id="214" transform="translate(582,1210.3)" ed:width="336" ed:parentid="204"><path id="215" fill="none" transform="translate(-14.5,-19.2)" stroke-linejoin="round" d="M-14.5,-29.7L2.6,-29.7L2.6,23.7C2.6,27,5.3,29.7,8.6,29.7L14.5,29.7" stroke="#58a8d0" stroke-linecap="round"/><text class="st2"><tspan lengthAdjust="spacing" textLength="325" style="white-space:pre" x="6" y="15.5">条件反射和关联：例：人会自然地讨厌带来坏消息的人。</tspan></text></g><g ed:height="21" id="216" transform="translate(947,1180.6)" ed:width="622" ed:parentid="214"><path id="217" fill="none" transform="translate(-14.5,25.35)" stroke-linejoin="round" d="M-14.5,14.8L2.6,14.8L2.6,-8.8C2.6,-12.2,5.3,-14.8,8.6,-14.8L14.5,-14.8" stroke="#58a8d0" stroke-linecap="round"/><text class="st2"><tspan lengthAdjust="spacing" textLength="611" style="white-space:pre" x="6" y="15.5">午宴术：受试者对就餐期间接触到的人或事物更为喜爱。这里的午餐可以替换为其他让人感觉愉快的事物。</tspan></text></g><g ed:height="21" id="218" transform="translate(947,1210.3)" ed:width="1311" ed:parentid="214"><path id="219" fill="none" transform="translate(-14.51,10.5)" stroke-linejoin="round" d="M-14.5,0L2.6,0C2.6,0,5.3,0,8.6,0L14.5,0" stroke="#58a8d0" stroke-linecap="round"/><text class="st2"><tspan lengthAdjust="spacing" textLength="1300" style="white-space:pre" x="6" y="15.5">关联原理的本质，我们展示积极的联系，隐藏消极的联系，努力让傍观者觉得我们更高大，更值得喜欢。个人觉得这是人内心虚荣的表现，人的本质就是如此，不管我们承认与否。源于此，我们会更加倾向于和优秀的人交朋友。</tspan></text></g><g ed:height="21" id="220" transform="translate(947,1240)" ed:width="791" ed:parentid="214"><path id="221" fill="none" transform="translate(-14.51,-4.35)" stroke-linejoin="round" d="M-14.5,-14.8L2.6,-14.8L2.6,8.8C2.6,12.2,5.3,14.8,8.6,14.8L14.5,14.8" stroke="#58a8d0" stroke-linecap="round"/><text class="st2"><tspan lengthAdjust="spacing" textLength="780" style="white-space:pre" x="6" y="15.5">在我们以个人成就为傲的时候，我们不会占别人的光。只有当我们在私的威望都很低的时候，我们才会想借助他人成功来恢复自我形象。</tspan></text></g><g ed:height="21" id="222" transform="translate(451,1395.1)" ed:width="76" ed:parentid="110"><path id="223" fill="none" transform="translate(-14.5,-4.35)" stroke-linejoin="round" d="M-14.5,-14.8L2.6,-14.8L2.6,8.8C2.6,12.2,5.3,14.8,8.6,14.8L14.5,14.8" stroke="#57c1f4" stroke-linecap="round"/><text class="st2"><tspan lengthAdjust="spacing" textLength="65" style="white-space:pre" x="6" y="15.5">权威的象征</tspan></text></g><g ed:height="21" id="224" transform="translate(451,1335.7)" ed:width="492" ed:parentid="110"><path id="225" fill="none" transform="translate(-14.5,25.35)" stroke-linejoin="round" d="M-14.5,14.8L2.6,14.8L2.6,-8.8C2.6,-12.2,5.3,-14.8,8.6,-14.8L14.5,-14.8" stroke="#57c1f4" stroke-linecap="round"/><text class="st2"><tspan lengthAdjust="spacing" textLength="481" style="white-space:pre" x="6" y="15.5">服从权威人物的命令，总能给我们带来一些实际的好处，使我们的思维产生了关心。</tspan></text></g><g ed:height="21" id="226" transform="translate(556,1365.4)" ed:width="596" ed:parentid="222"><path id="227" fill="none" transform="translate(-14.5,25.35)" stroke-linejoin="round" d="M-14.5,14.8L2.6,14.8L2.6,-8.8C2.6,-12.2,5.3,-14.8,8.6,-14.8L14.5,-14.8" stroke="#57c1f4" stroke-linecap="round"/><text class="st2"><tspan lengthAdjust="spacing" textLength="585" style="white-space:pre" x="6" y="15.5">头衔，可以让陌生人更恭维，让有头衔的人在旁人眼里更高大。（人们觉得体格和地位之间存在联系）</tspan></text></g><g ed:height="21" id="228" transform="translate(556,1395.1)" ed:width="115" ed:parentid="222"><path id="229" fill="none" transform="translate(-14.5,10.5)" stroke-linejoin="round" d="M-14.5,0L2.6,0C2.6,0,5.3,0,8.6,0L14.5,0" stroke="#57c1f4" stroke-linecap="round"/><text class="st2"><tspan lengthAdjust="spacing" textLength="104" style="white-space:pre" x="6" y="15.5">衣着，制服的诱惑</tspan></text></g><g ed:height="21" id="230" transform="translate(556,1424.8)" ed:width="310" ed:parentid="222"><path id="231" fill="none" transform="translate(-14.5,-4.35)" stroke-linejoin="round" d="M-14.5,-14.8L2.6,-14.8L2.6,8.8C2.6,12.2,5.3,14.8,8.6,14.8L14.5,14.8" stroke="#57c1f4" stroke-linecap="round"/><text class="st2"><tspan lengthAdjust="spacing" textLength="299" style="white-space:pre" x="6" y="15.5">身份标志：男人的汽车，女人的珠宝都是权威的象征</tspan></text></g><g ed:height="21" id="232" transform="translate(451,1520.5)" ed:width="475" ed:parentid="112"><path id="233" fill="none" transform="translate(-14.5,55.05)" stroke-linejoin="round" d="M-14.5,44.5L2.6,44.5L2.6,-38.5C2.6,-41.9,5.3,-44.5,8.6,-44.5L14.5,-44.5" stroke="#32c5c4" stroke-linecap="round"/><text class="st2"><tspan lengthAdjust="spacing" textLength="464" style="white-space:pre" x="6" y="15.5">物以稀为贵（限量版商品的出现，完全是商家运用稀缺原理来赚取顾客的money）</tspan></text></g><g ed:height="21" id="234" transform="translate(451,1550.2)" ed:width="323" ed:parentid="112"><path id="235" fill="none" transform="translate(-14.5,40.2)" stroke-linejoin="round" d="M-14.5,29.7L2.6,29.7L2.6,-23.7C2.6,-27,5.3,-29.7,8.6,-29.7L14.5,-29.7" stroke="#32c5c4" stroke-linecap="round"/><text class="st2"><tspan lengthAdjust="spacing" textLength="312" style="white-space:pre" x="6" y="15.5">对于失去的恐惧比对于得到的渴望更能激发人的行动力</tspan></text></g><g ed:height="21" id="236" transform="translate(451,1579.9)" ed:width="63" ed:parentid="112"><path id="237" fill="none" transform="translate(-14.5,25.35)" stroke-linejoin="round" d="M-14.5,14.8L2.6,14.8L2.6,-8.8C2.6,-12.2,5.3,-14.8,8.6,-14.8L14.5,-14.8" stroke="#32c5c4" stroke-linecap="round"/><text class="st2"><tspan lengthAdjust="spacing" textLength="52" style="white-space:pre" x="6" y="15.5">逆反心理</tspan></text></g><g ed:height="21" id="238" transform="translate(451,1609.6)" ed:width="713" ed:parentid="112"><path id="239" fill="none" transform="translate(-14.5,10.5)" stroke-linejoin="round" d="M-14.5,0L2.6,0C2.6,0,5.3,0,8.6,0L14.5,0" stroke="#32c5c4" stroke-linecap="round"/><text class="st2"><tspan lengthAdjust="spacing" textLength="702" style="white-space:pre" x="6" y="15.5">稀缺原理和逆反心理的原因：每当有东西获取起来比从前艰难，我们拥有它的自由受到了限制，我们就越发的想要得到他。</tspan></text></g><g ed:height="21" id="240" transform="translate(451,1639.3)" ed:width="336" ed:parentid="112"><path id="241" fill="none" transform="translate(-14.5,-4.35)" stroke-linejoin="round" d="M-14.5,-14.8L2.6,-14.8L2.6,8.8C2.6,12.2,5.3,14.8,8.6,14.8L14.5,14.8" stroke="#32c5c4" stroke-linecap="round"/><text class="st2"><tspan lengthAdjust="spacing" textLength="325" style="white-space:pre" x="6" y="15.5">最佳条件：新出现的稀缺比一贯稀缺更能够引起人的欲望</tspan></text></g><g ed:height="21" id="242" transform="translate(451,1669)" ed:width="206" ed:parentid="112"><path id="243" fill="none" transform="translate(-14.5,-19.2)" stroke-linejoin="round" d="M-14.5,-29.7L2.6,-29.7L2.6,23.7C2.6,27,5.3,29.7,8.6,29.7L14.5,29.7" stroke="#32c5c4" stroke-linecap="round"/><text class="st2"><tspan lengthAdjust="spacing" textLength="195" style="white-space:pre" x="6" y="15.5">给一点又拿走，比完全不给更危险</tspan></text></g><g ed:height="21" id="244" transform="translate(451,1698.7)" ed:width="284" ed:parentid="112"><path id="245" fill="none" transform="translate(-14.5,-34.05)" stroke-linejoin="round" d="M-14.5,-44.5L2.6,-44.5L2.6,38.5C2.6,41.9,5.3,44.5,8.6,44.5L14.5,44.5" stroke="#32c5c4" stroke-linecap="round"/><text class="st2"><tspan lengthAdjust="spacing" textLength="273" style="white-space:pre" x="6" y="15.5">参与竞争稀缺资源的感觉，有着强大的刺激性。</tspan></text></g><g ed:height="21" id="246" transform="translate(451,1728.4)" ed:width="206" ed:parentid="112"><path id="247" fill="none" transform="translate(-14.5,-48.9)" stroke-linejoin="round" d="M-14.5,-59.4L2.6,-59.4L2.6,53.4C2.6,56.7,5.3,59.4,8.6,59.4L14.5,59.4" stroke="#32c5c4" stroke-linecap="round"/><text class="st2"><tspan lengthAdjust="spacing" textLength="195" style="white-space:pre" x="6" y="15.5">喜悦不来自于体验，而来自于占有</tspan></text></g><g ed:height="62" id="101" transform="translate(153,919.2)" ed:layout="rightmap" ed:width="121.15" ed:topictype="mainidea"><path fill="#f56481" stroke-linejoin="round" d="M31,0L90.2,0C107.3,0,121.2,13.9,121.2,31C121.2,48.1,107.3,62,90.2,62L31,62C13.9,62,0,48.1,0,31C0,13.9,13.9,0,31,0z" stroke="#f56481" stroke-width="3"/><text class="st3"><tspan lengthAdjust="spacing" textLength="57" style="white-space:pre" x="33" y="38.5">影响力</tspan></text></g><g ed:togtopicid="101" transform="translate(275.15,944.2)"><use xlink:href="#minus"/></g><g ed:togtopicid="102" transform="translate(423,274.3)"><use xlink:href="#minus"/></g><g ed:togtopicid="104" transform="translate(455,622.45)"><use xlink:href="#minus"/></g><g ed:togtopicid="106" transform="translate(455,911.2)"><use xlink:href="#minus"/></g><g ed:togtopicid="108" transform="translate(423,1140.55)"><use xlink:href="#minus"/></g><g ed:togtopicid="110" transform="translate(423,1369.9)"><use xlink:href="#minus"/></g><g ed:togtopicid="112" transform="translate(423,1614.1)"><use xlink:href="#minus"/></g><g ed:togtopicid="114" transform="translate(917.995,200.05)"><use xlink:href="#minus"/></g><g ed:togtopicid="126" transform="translate(488.995,348.55)"><use xlink:href="#minus"/></g><g ed:togtopicid="170" transform="translate(559.995,533.35)"><use xlink:href="#minus"/></g><g ed:togtopicid="178" transform="translate(546.995,681.85)"><use xlink:href="#minus"/></g><g ed:togtopicid="196" transform="translate(546.995,926.05)"><use xlink:href="#minus"/></g><g ed:togtopicid="204" transform="translate(553.995,1155.4)"><use xlink:href="#minus"/></g><g ed:togtopicid="214" transform="translate(918.995,1214.8)"><use xlink:href="#minus"/></g><g ed:togtopicid="222" transform="translate(527.995,1399.6)"><use xlink:href="#minus"/></g><symbol id="plus"><path fill="url(#lg1)" d="M11,6C11,8.8,8.8,11,6,11C3.2,11,1,8.8,1,6C1,3.2,3.2,1,6,1C8.8,1,11,3.2,11,6z"/><path fill="none" d="M11,6C11,8.8,8.8,11,6,11C3.2,11,1,8.8,1,6C1,3.2,3.2,1,6,1C8.8,1,11,3.2,11,6zM3,6L9,6M6,3L6,9" stroke="#46a000"/></symbol><symbol id="minus"><path fill="url(#lg1)" d="M11,6C11,8.8,8.8,11,6,11C3.2,11,1,8.8,1,6C1,3.2,3.2,1,6,1C8.8,1,11,3.2,11,6z"/><path fill="none" d="M11,6C11,8.8,8.8,11,6,11C3.2,11,1,8.8,1,6C1,3.2,3.2,1,6,1C8.8,1,11,3.2,11,6zM3,6L9,6" stroke="#46a000"/></symbol></svg>